HIERARCHY
ROOT Hips
{
	OFFSET	0.00	0.00	0.00
	CHANNELS 6 Xposition Yposition Zposition Zrotation Xrotation Yrotation
	JOINT LeftUpLeg
	{
		OFFSET	 0.126116	-0.014019	-0.065224
		CHANNELS 3 Zrotation Xrotation Yrotation
		JOINT LeftLeg
		{
			OFFSET	 0.000000	 0.000000	 0.569914
			CHANNELS 3 Zrotation Xrotation Yrotation
			JOINT LeftFoot
			{
				OFFSET	 0.000000	 0.000000	 0.544423
				CHANNELS 3 Zrotation Xrotation Yrotation
				JOINT LeftToeBase
				{
					OFFSET	 0.000000	 0.000000	 0.207117
					CHANNELS 3 Zrotation Xrotation Yrotation
					End Site
					{
						OFFSET	 0.000000	 0.000000	 0.207117
					}
				}
			}
		}
	}
	JOINT RightUpLeg
	{
		OFFSET	-0.124023	-0.008373	-0.065224
		CHANNELS 3 Zrotation Xrotation Yrotation
		JOINT RightLeg
		{
			OFFSET	 0.000000	 0.000000	 0.570047
			CHANNELS 3 Zrotation Xrotation Yrotation
			JOINT RightFoot
			{
				OFFSET	 0.000000	 0.000000	 0.544354
				CHANNELS 3 Zrotation Xrotation Yrotation
				JOINT RightToeBase
				{
					OFFSET	 0.000000	 0.000000	 0.207540
					CHANNELS 3 Zrotation Xrotation Yrotation
					End Site
					{
						OFFSET	 0.000000	 0.000000	 0.207540
					}
				}
			}
		}
	}
	JOINT Spine
	{
		OFFSET	 0.000184	-0.007763	 0.117403
		CHANNELS 3 Zrotation Xrotation Yrotation
		JOINT Spine1
		{
			OFFSET	 0.000000	 0.000000	 0.137269
			CHANNELS 3 Zrotation Xrotation Yrotation
			JOINT Spine2
			{
				OFFSET	 0.000000	 0.000000	 0.156879
				CHANNELS 3 Zrotation Xrotation Yrotation
				JOINT LeftShoulder
				{
					OFFSET	 0.080501	-0.002496	 0.160144
					CHANNELS 3 Zrotation Xrotation Yrotation
					JOINT LeftArm
					{
						OFFSET	 0.000000	 0.000000	 0.164363
						CHANNELS 3 Zrotation Xrotation Yrotation
						JOINT LeftForeArm
						{
							OFFSET	 0.000000	 0.000000	 0.364576
							CHANNELS 3 Zrotation Xrotation Yrotation
							JOINT LeftHand
							{
								OFFSET	 0.000000	 0.000000	 0.360812
								CHANNELS 3 Zrotation Xrotation Yrotation
								JOINT LeftHandIndex1
								{
									OFFSET	 0.000000	 0.000000	 0.086006
									CHANNELS 3 Zrotation Xrotation Yrotation
									JOINT LeftHandIndex2
									{
										OFFSET	 0.000000	 0.000000	 0.047236
										CHANNELS 3 Zrotation Xrotation Yrotation
										JOINT LeftHandIndex3
										{
											OFFSET	-0.004284	-0.000551	 0.038166
											CHANNELS 3 Zrotation Xrotation Yrotation
											End Site
											{
												OFFSET	-0.004284	-0.000551	 0.038166
											}
										}
									}
								}
							}
						}
					}
				}
				JOINT Neck
				{
					OFFSET	 0.000000	 0.000000	 0.176489
					CHANNELS 3 Zrotation Xrotation Yrotation
					JOINT Head
					{
						OFFSET	 0.000000	-0.001747	 0.077940
						CHANNELS 3 Zrotation Xrotation Yrotation
						End Site
						{
							OFFSET	 0.000000	-0.001747	 0.077940
						}
					}
				}
				JOINT RightShoulder
				{
					OFFSET	-0.080363	 0.000306	 0.159706
					CHANNELS 3 Zrotation Xrotation Yrotation
					JOINT RightArm
					{
						OFFSET	 0.000000	 0.000000	 0.164196
						CHANNELS 3 Zrotation Xrotation Yrotation
						JOINT RightForeArm
						{
							OFFSET	 0.000000	 0.000000	 0.365611
							CHANNELS 3 Zrotation Xrotation Yrotation
							JOINT RightHand
							{
								OFFSET	 0.000000	 0.000000	 0.360648
								CHANNELS 3 Zrotation Xrotation Yrotation
								JOINT RightHandIndex1
								{
									OFFSET	 0.000000	 0.000000	 0.069977
									CHANNELS 3 Zrotation Xrotation Yrotation
									JOINT RightHandIndex2
									{
										OFFSET	 0.000000	 0.000000	 0.052305
										CHANNELS 3 Zrotation Xrotation Yrotation
										JOINT RightHandIndex3
										{
											OFFSET	 0.009002	-0.000782	 0.042196
											CHANNELS 3 Zrotation Xrotation Yrotation
											End Site
											{
												OFFSET	 0.009002	-0.000782	 0.042196
											}
										}
									}
								}
							}
						}
					}
				}
			}
		}
	}
}
MOTION
Frames:    5
Frame Time: 0.03333334
 0.011311	 0.005396	 1.200577	 5.500999	-0.611893	-2.738947	 5.093217	-9.414492	-173.853100	 1.188588	-38.126400	 0.516086	 61.993880	 82.658930	-66.249790	-2.368738	 31.724850	-0.072414	-13.376200	-33.980970	-176.714600	 10.384260	-45.174900	 7.952416	 11.035660	 75.028950	-7.150907	 2.358981	 32.998000	 0.103177	-14.055640	 8.238721	 1.926658	-2.218298	 2.205074	-1.430546	 3.155954	-2.345804	 1.643727	-94.078150	 58.975800	 175.088900	 9.708093	 29.198850	-44.083720	-5.456862	 0.171971	-3.164230	-6.573693	-30.282030	-11.366700	-4.866014	 19.349190	-2.797929	-3.871745	 21.597770	 2.192813	-4.804700	 5.587409	 0.144514	-0.045678	-5.100060	 0.221675	 1.114536	 1.831022	 2.651214	 89.727560	 61.737500	 179.869500	-20.868490	 55.977020	 9.750165	 1.779777	-1.300069	 13.778100	-1.115456	-15.730070	 1.424712	 6.280186	 23.826910	-0.547755	 2.010177	 43.672560	-7.103927	 0.740096	 23.330280	 3.461341
 0.009431	-0.033337	 1.198542	 6.029964	-0.036169	-2.820356	 4.475703	-7.526820	-174.226500	 1.396469	-37.027880	 0.628589	 67.985020	 83.430310	-72.358470	-2.367538	 31.921330	-0.076883	-15.198770	-35.454310	-177.656000	 10.055670	-38.191250	 6.735262	 9.464906	 74.403120	-6.247834	 2.359462	 32.927350	 0.101539	-17.628260	 7.809929	 1.813087	-2.341323	 2.445218	-1.323641	 3.045374	-2.669694	 1.621003	-94.223050	 58.993100	 174.777600	 8.406432	 27.174650	-44.842530	-7.532495	 0.396434	-4.375005	-9.139595	-33.488040	-13.508430	-4.859298	 19.513200	-2.807183	-3.862389	 21.716790	 2.183310	-4.801639	 5.623553	 0.142398	-0.019067	-5.128558	 0.265664	 1.076996	 1.730087	 2.586593	 89.661470	 61.842660	 179.710400	-20.502980	 57.091060	 8.199622	 2.898424	-0.768865	 14.154680	 0.352493	-18.629590	 1.857311	 6.263707	 22.720380	-0.569548	 2.129910	 42.645620	-7.209711	 0.981154	 22.245050	 3.344310
 0.004605	-0.118816	 1.189258	 6.482586	 0.919903	-3.380402	 3.844074	-2.584970	-174.756200	 1.607134	-34.013690	 0.701787	 82.610270	 84.884230	-87.043960	-2.360702	 32.980030	-0.101202	-16.093630	-37.258770	-178.818500	 9.463321	-23.753700	 4.154125	 11.849190	 73.847900	-10.054640	 2.355387	 33.517080	 0.115286	-25.017340	 6.774782	 1.998206	-2.541903	 3.427668	-1.072643	 2.884903	-3.388240	 1.520116	-94.446210	 58.968740	 174.305800	 5.884964	 23.870970	-46.328450	-12.733560	 1.187683	-7.074454	-15.774110	-39.978410	-17.588000	-4.831256	 20.108960	-2.822085	-3.831444	 22.108180	 2.151876	-4.777436	 5.908040	 0.125663	 0.015305	-5.252217	 0.336305	 0.961587	 1.495567	 2.543385	 89.475070	 62.025860	 179.257700	-18.812020	 58.672520	 6.175134	 4.728428	 0.711883	 12.034200	 2.868885	-24.615130	 2.240193	 6.207947	 19.658910	-0.684685	 2.458875	 39.608780	-7.496756	 1.649581	 19.133020	 3.040261
-0.001640	-0.192343	 1.174808	 6.821703	 1.116946	-3.752529	 3.254645	 2.462914	-175.482100	 1.852682	-31.319030	 0.779815	 84.100800	 86.036670	-88.551730	-2.338650	 35.885930	-0.170371	-15.625340	-42.391050	-179.411400	 10.191190	-21.823440	 4.113508	 22.315350	 76.707860	-21.950500	 2.335183	 36.091760	 0.177109	-31.448090	 6.549795	 2.173522	-2.645818	 3.989806	-0.896726	 2.813778	-4.073889	 1.443933	-94.545400	 58.900250	 174.105900	 4.040466	 22.591600	-47.172160	-16.586620	 2.224015	-9.437030	-22.968900	-44.134260	-23.341740	-4.842749	 20.493510	-3.002766	-3.792172	 22.599200	 2.111984	-4.728845	 6.475864	 0.091874	 0.101274	-5.390697	 0.355323	 0.968767	 1.311518	 2.254325	 89.359500	 61.978240	 178.980300	-16.409780	 59.390070	 3.177687	 6.411900	 2.017604	 11.639800	 5.417685	-29.540100	 2.751730	 6.163592	 16.460760	-0.700045	 2.851137	 35.524690	-7.830984	 2.301858	 15.956120	 2.774393
-0.010750	-0.276812	 1.162562	 7.163886	 0.934014	-3.139773	 2.590029	 8.833896	-177.404800	 2.103045	-26.694090	 0.786489	 24.814050	 84.356770	-28.848150	-2.246575	 43.957870	-0.387333	-14.738120	-43.553270	 179.523600	 8.660542	-20.962880	 3.396284	 9.391394	 70.465020	-6.970642	 2.339482	 35.585380	 0.164701	-37.427060	 6.479689	 1.636900	-2.797742	 4.211927	-1.059649	 2.713062	-4.393744	 1.404925	-94.495930	 59.263310	 174.151100	 2.687666	 22.497500	-47.016750	-20.091450	 3.492317	-11.595490	-30.432130	-46.046310	-29.702740	-4.883116	 20.642360	-3.282755	-3.760893	 22.985710	 2.080224	-4.659050	 7.283425	 0.042903	 0.208981	-5.479451	 0.265373	 1.110889	 1.302310	 2.122711	 89.355210	 61.575590	 178.984800	-14.411610	 59.328100	 0.540433	 8.420524	 3.383749	 11.666280	 7.995226	-32.998180	 3.936121	 6.216248	 13.319160	-0.264613	 3.059533	 33.123940	-8.004285	 2.897612	 12.942360	 2.560146
